<svg xmlns="http://www.w3.org/2000/svg" viewBox="0 0 64 64"><path d="M10 31h9v22h-9Zm16-10h9v32h-9ZM42 9h9v44h-9Z" fill="#819474" stroke="#3b4e37" stroke-width="1.1"/><path d="m13 35 3 1m-3 4 3 1m-3 4 3 1M29 25l3 1m-3 4 3 1M45 13l3 1m-3 4 3 1m-3 4 3 1" stroke="#c7cbb0" stroke-width=".7"/><circle cx="31" cy="39" r="16" fill="#dfbb73" stroke="#484f33" stroke-width="1.4"/><circle cx="31" cy="39" r="12" fill="none" stroke="#98804b" stroke-width=".8"/><path d="M32 31v16m4-12c-3-4-9-2-9 1 0 4 9 1 9 5 0 4-6 5-10 1" fill="none" stroke="#655737" stroke-width="1.5"/><path d="m19 43 2 2m-1-7 1 2m19 5 2-3" stroke="#6f6340" stroke-width=".6"/></svg>